<svg aria-roledescription="er" role="graphics-document document" viewBox="0 0 996.1695556640625 545" style="max-width: 996.17px; background-color: white;" xmlns:xlink="http://www.w3.org/1999/xlink" xmlns="http://www.w3.org/2000/svg" width="100%" id="mermaid-0"><style>#mermaid-0{font-family:"trebuchet ms",verdana,arial,sans-serif;font-size:16px;fill:#000000;}#mermaid-0 .error-icon{fill:#552222;}#mermaid-0 .error-text{fill:#552222;stroke:#552222;}#mermaid-0 .edge-thickness-normal{stroke-width:2px;}#mermaid-0 .edge-thickness-thick{stroke-width:3.5px;}#mermaid-0 .edge-pattern-solid{stroke-dasharray:0;}#mermaid-0 .edge-pattern-dashed{stroke-dasharray:3;}#mermaid-0 .edge-pattern-dotted{stroke-dasharray:2;}#mermaid-0 .marker{fill:#000000;stroke:#000000;}#mermaid-0 .marker.cross{stroke:#000000;}#mermaid-0 svg{font-family:"trebuchet ms",verdana,arial,sans-serif;font-size:16px;}#mermaid-0 .entityBox{fill:#cde498;stroke:#13540c;}#mermaid-0 .attributeBoxOdd{fill:#ffffff;stroke:#13540c;}#mermaid-0 .attributeBoxEven{fill:#f2f2f2;stroke:#13540c;}#mermaid-0 .relationshipLabelBox{fill:hsl(78.1578947368, 58.4615384615%, 84.5098039216%);opacity:0.7;background-color:hsl(78.1578947368, 58.4615384615%, 84.5098039216%);}#mermaid-0 .relationshipLabelBox rect{opacity:0.5;}#mermaid-0 .relationshipLine{stroke:#000000;}#mermaid-0 .entityTitleText{text-anchor:middle;font-size:18px;fill:#000000;}#mermaid-0 :root{--mermaid-font-family:"trebuchet ms",verdana,arial,sans-serif;}</style><g/><defs><marker orient="auto" markerHeight="18" markerWidth="18" refY="9" refX="0" id="ONLY_ONE_START"><path d="M9,0 L9,18 M15,0 L15,18" fill="none" stroke="gray"/></marker></defs><defs><marker orient="auto" markerHeight="18" markerWidth="18" refY="9" refX="18" id="ONLY_ONE_END"><path d="M3,0 L3,18 M9,0 L9,18" fill="none" stroke="gray"/></marker></defs><defs><marker orient="auto" markerHeight="18" markerWidth="30" refY="9" refX="0" id="ZERO_OR_ONE_START"><circle r="6" cy="9" cx="21" fill="white" stroke="gray"/><path d="M9,0 L9,18" fill="none" stroke="gray"/></marker></defs><defs><marker orient="auto" markerHeight="18" markerWidth="30" refY="9" refX="30" id="ZERO_OR_ONE_END"><circle r="6" cy="9" cx="9" fill="white" stroke="gray"/><path d="M21,0 L21,18" fill="none" stroke="gray"/></marker></defs><defs><marker orient="auto" markerHeight="36" markerWidth="45" refY="18" refX="18" id="ONE_OR_MORE_START"><path d="M0,18 Q 18,0 36,18 Q 18,36 0,18 M42,9 L42,27" fill="none" stroke="gray"/></marker></defs><defs><marker orient="auto" markerHeight="36" markerWidth="45" refY="18" refX="27" id="ONE_OR_MORE_END"><path d="M3,9 L3,27 M9,18 Q27,0 45,18 Q27,36 9,18" fill="none" stroke="gray"/></marker></defs><defs><marker orient="auto" markerHeight="36" markerWidth="57" refY="18" refX="18" id="ZERO_OR_MORE_START"><circle r="6" cy="18" cx="48" fill="white" stroke="gray"/><path d="M0,18 Q18,0 36,18 Q18,36 0,18" fill="none" stroke="gray"/></marker></defs><defs><marker orient="auto" markerHeight="36" markerWidth="57" refY="18" refX="39" id="ZERO_OR_MORE_END"><circle r="6" cy="18" cx="9" fill="white" stroke="gray"/><path d="M21,18 Q39,0 57,18 Q39,36 21,18" fill="none" stroke="gray"/></marker></defs><path style="stroke: gray; fill: none;" marker-start="url(#ZERO_OR_MORE_START)" marker-end="url(#ONLY_ONE_END)" d="M124.13832092285156,275L124.13832092285156,283.3333333333333C124.13832092285156,291.6666666666667,124.13832092285156,308.3333333333333,155.77603403727213,330.7572967765986C187.41374715169272,353.1812602198638,250.68917338053384,381.3625204397276,282.3268864949544,395.4531505496595L313.964599609375,409.54378065959133" class="er relationshipLine"/><path style="stroke: gray; fill: none;" marker-start="url(#ZERO_OR_MORE_START)" marker-end="url(#ONLY_ONE_END)" d="M404.80101013183594,191L404.80101013183594,213.33333333333334C404.80101013183594,235.66666666666666,404.80101013183594,280.3333333333333,404.80101013183594,311C404.80101013183594,341.6666666666667,404.80101013183594,358.3333333333333,404.80101013183594,366.6666666666667L404.80101013183594,375" class="er relationshipLine"/><path style="stroke: gray; fill: none;" marker-start="url(#ZERO_OR_MORE_START)" marker-end="url(#ONLY_ONE_END)" d="M894.3385697485695,212L899.6437340678184,230.83333333333334C904.9488983870673,249.66666666666666,915.5592270255648,287.3333333333333,920.8643913448136,321.5C926.1695556640625,355.6666666666667,926.1695556640625,386.3333333333333,926.1695556640625,401.6666666666667L926.1695556640625,417" class="er relationshipLine"/><path style="stroke: gray; fill: none;" marker-start="url(#ZERO_OR_MORE_START)" marker-end="url(#ONLY_ONE_END)" d="M808.6955523208833,212L788.9938407503943,230.83333333333334C769.2921291799053,249.66666666666666,729.8887060389274,287.3333333333333,677.7123507611628,320.37581589320723C625.5359954833984,353.41829845308115,560.5867080688477,381.83659690616224,528.1120643615723,396.0457461327028L495.6374206542969,410.2548953592434" class="er relationshipLine"/><g transform="translate(313.964599609375,375 )" id="entity-users-33ae1e26-be31-5c1d-bf65-e859e9d0308e"><rect height="150" width="181.67282104492188" y="0" x="0" class="er entityBox"/><text style="dominant-baseline: middle; text-anchor: middle; font-size: 12px;" transform="translate(90.83641052246094,12)" y="0" x="0" id="text-entity-users-33ae1e26-be31-5c1d-bf65-e859e9d0308e" class="er entityLabel">users</text><rect height="21" width="54.113128662109375" y="24" x="0" class="er attributeBoxOdd"/><text style="dominant-baseline: middle; font-size: 10.2px;" transform="translate(5,34.5)" y="0" x="0" id="text-entity-users-33ae1e26-be31-5c1d-bf65-e859e9d0308e-attr-1-type" class="er entityLabel">String</text><rect height="21" width="58.311492919921875" y="24" x="54.113128662109375" class="er attributeBoxOdd"/><text style="dominant-baseline: middle; font-size: 10.2px;" transform="translate(59.113128662109375,34.5)" y="0" x="0" id="text-entity-users-33ae1e26-be31-5c1d-bf65-e859e9d0308e-attr-1-name" class="er entityLabel">id</text><rect height="21" width="23.79498291015625" y="24" x="112.42462158203125" class="er attributeBoxOdd"/><text style="dominant-baseline: middle; font-size: 10.2px;" transform="translate(117.42462158203125,34.5)" y="0" x="0" id="text-entity-users-33ae1e26-be31-5c1d-bf65-e859e9d0308e-attr-1-key" class="er entityLabel">PK</text><rect height="21" width="45.453216552734375" y="24" x="136.2196044921875" class="er attributeBoxOdd"/><text style="dominant-baseline: middle; font-size: 10.2px;" transform="translate(141.2196044921875,34.5)" y="0" x="0" id="text-entity-users-33ae1e26-be31-5c1d-bf65-e859e9d0308e-attr-1-comment" class="er entityLabel"/><rect height="21" width="54.113128662109375" y="45" x="0" class="er attributeBoxEven"/><text style="dominant-baseline: middle; font-size: 10.2px;" transform="translate(5,55.5)" y="0" x="0" id="text-entity-users-33ae1e26-be31-5c1d-bf65-e859e9d0308e-attr-2-type" class="er entityLabel">String</text><rect height="21" width="58.311492919921875" y="45" x="54.113128662109375" class="er attributeBoxEven"/><text style="dominant-baseline: middle; font-size: 10.2px;" transform="translate(59.113128662109375,55.5)" y="0" x="0" id="text-entity-users-33ae1e26-be31-5c1d-bf65-e859e9d0308e-attr-2-name" class="er entityLabel">username</text><rect height="21" width="23.79498291015625" y="45" x="112.42462158203125" class="er attributeBoxEven"/><text style="dominant-baseline: middle; font-size: 10.2px;" transform="translate(117.42462158203125,55.5)" y="0" x="0" id="text-entity-users-33ae1e26-be31-5c1d-bf65-e859e9d0308e-attr-2-key" class="er entityLabel"/><rect height="21" width="45.453216552734375" y="45" x="136.2196044921875" class="er attributeBoxEven"/><text style="dominant-baseline: middle; font-size: 10.2px;" transform="translate(141.2196044921875,55.5)" y="0" x="0" id="text-entity-users-33ae1e26-be31-5c1d-bf65-e859e9d0308e-attr-2-comment" class="er entityLabel"/><rect height="21" width="54.113128662109375" y="66" x="0" class="er attributeBoxOdd"/><text style="dominant-baseline: middle; font-size: 10.2px;" transform="translate(5,76.5)" y="0" x="0" id="text-entity-users-33ae1e26-be31-5c1d-bf65-e859e9d0308e-attr-3-type" class="er entityLabel">String</text><rect height="21" width="58.311492919921875" y="66" x="54.113128662109375" class="er attributeBoxOdd"/><text style="dominant-baseline: middle; font-size: 10.2px;" transform="translate(59.113128662109375,76.5)" y="0" x="0" id="text-entity-users-33ae1e26-be31-5c1d-bf65-e859e9d0308e-attr-3-name" class="er entityLabel">name</text><rect height="21" width="23.79498291015625" y="66" x="112.42462158203125" class="er attributeBoxOdd"/><text style="dominant-baseline: middle; font-size: 10.2px;" transform="translate(117.42462158203125,76.5)" y="0" x="0" id="text-entity-users-33ae1e26-be31-5c1d-bf65-e859e9d0308e-attr-3-key" class="er entityLabel"/><rect height="21" width="45.453216552734375" y="66" x="136.2196044921875" class="er attributeBoxOdd"/><text style="dominant-baseline: middle; font-size: 10.2px;" transform="translate(141.2196044921875,76.5)" y="0" x="0" id="text-entity-users-33ae1e26-be31-5c1d-bf65-e859e9d0308e-attr-3-comment" class="er entityLabel"/><rect height="21" width="54.113128662109375" y="87" x="0" class="er attributeBoxEven"/><text style="dominant-baseline: middle; font-size: 10.2px;" transform="translate(5,97.5)" y="0" x="0" id="text-entity-users-33ae1e26-be31-5c1d-bf65-e859e9d0308e-attr-4-type" class="er entityLabel">String</text><rect height="21" width="58.311492919921875" y="87" x="54.113128662109375" class="er attributeBoxEven"/><text style="dominant-baseline: middle; font-size: 10.2px;" transform="translate(59.113128662109375,97.5)" y="0" x="0" id="text-entity-users-33ae1e26-be31-5c1d-bf65-e859e9d0308e-attr-4-name" class="er entityLabel">email</text><rect height="21" width="23.79498291015625" y="87" x="112.42462158203125" class="er attributeBoxEven"/><text style="dominant-baseline: middle; font-size: 10.2px;" transform="translate(117.42462158203125,97.5)" y="0" x="0" id="text-entity-users-33ae1e26-be31-5c1d-bf65-e859e9d0308e-attr-4-key" class="er entityLabel"/><rect height="21" width="45.453216552734375" y="87" x="136.2196044921875" class="er attributeBoxEven"/><text style="dominant-baseline: middle; font-size: 10.2px;" transform="translate(141.2196044921875,97.5)" y="0" x="0" id="text-entity-users-33ae1e26-be31-5c1d-bf65-e859e9d0308e-attr-4-comment" class="er entityLabel">nullable</text><rect height="21" width="54.113128662109375" y="108" x="0" class="er attributeBoxOdd"/><text style="dominant-baseline: middle; font-size: 10.2px;" transform="translate(5,118.5)" y="0" x="0" id="text-entity-users-33ae1e26-be31-5c1d-bf65-e859e9d0308e-attr-5-type" class="er entityLabel">String</text><rect height="21" width="58.311492919921875" y="108" x="54.113128662109375" class="er attributeBoxOdd"/><text style="dominant-baseline: middle; font-size: 10.2px;" transform="translate(59.113128662109375,118.5)" y="0" x="0" id="text-entity-users-33ae1e26-be31-5c1d-bf65-e859e9d0308e-attr-5-name" class="er entityLabel">avatar_url</text><rect height="21" width="23.79498291015625" y="108" x="112.42462158203125" class="er attributeBoxOdd"/><text style="dominant-baseline: middle; font-size: 10.2px;" transform="translate(117.42462158203125,118.5)" y="0" x="0" id="text-entity-users-33ae1e26-be31-5c1d-bf65-e859e9d0308e-attr-5-key" class="er entityLabel"/><rect height="21" width="45.453216552734375" y="108" x="136.2196044921875" class="er attributeBoxOdd"/><text style="dominant-baseline: middle; font-size: 10.2px;" transform="translate(141.2196044921875,118.5)" y="0" x="0" id="text-entity-users-33ae1e26-be31-5c1d-bf65-e859e9d0308e-attr-5-comment" class="er entityLabel">nullable</text><rect height="21" width="54.113128662109375" y="129" x="0" class="er attributeBoxEven"/><text style="dominant-baseline: middle; font-size: 10.2px;" transform="translate(5,139.5)" y="0" x="0" id="text-entity-users-33ae1e26-be31-5c1d-bf65-e859e9d0308e-attr-6-type" class="er entityLabel">DateTime</text><rect height="21" width="58.311492919921875" y="129" x="54.113128662109375" class="er attributeBoxEven"/><text style="dominant-baseline: middle; font-size: 10.2px;" transform="translate(59.113128662109375,139.5)" y="0" x="0" id="text-entity-users-33ae1e26-be31-5c1d-bf65-e859e9d0308e-attr-6-name" class="er entityLabel">created_at</text><rect height="21" width="23.79498291015625" y="129" x="112.42462158203125" class="er attributeBoxEven"/><text style="dominant-baseline: middle; font-size: 10.2px;" transform="translate(117.42462158203125,139.5)" y="0" x="0" id="text-entity-users-33ae1e26-be31-5c1d-bf65-e859e9d0308e-attr-6-key" class="er entityLabel"/><rect height="21" width="45.453216552734375" y="129" x="136.2196044921875" class="er attributeBoxEven"/><text style="dominant-baseline: middle; font-size: 10.2px;" transform="translate(141.2196044921875,139.5)" y="0" x="0" id="text-entity-users-33ae1e26-be31-5c1d-bf65-e859e9d0308e-attr-6-comment" class="er entityLabel"/></g><g transform="translate(20,20 )" id="entity-accounts-63517279-e5db-51fd-8103-6411c1455933"><rect height="255" width="208.27664184570312" y="0" x="0" class="er entityBox"/><text style="dominant-baseline: middle; text-anchor: middle; font-size: 12px;" transform="translate(104.13832092285156,12)" y="0" x="0" id="text-entity-accounts-63517279-e5db-51fd-8103-6411c1455933" class="er entityLabel">accounts</text><rect height="21" width="36.947052001953125" y="24" x="0" class="er attributeBoxOdd"/><text style="dominant-baseline: middle; font-size: 10.2px;" transform="translate(5,34.5)" y="0" x="0" id="text-entity-accounts-63517279-e5db-51fd-8103-6411c1455933-attr-1-type" class="er entityLabel">String</text><rect height="21" width="102.08139038085938" y="24" x="36.947052001953125" class="er attributeBoxOdd"/><text style="dominant-baseline: middle; font-size: 10.2px;" transform="translate(41.947052001953125,34.5)" y="0" x="0" id="text-entity-accounts-63517279-e5db-51fd-8103-6411c1455933-attr-1-name" class="er entityLabel">id</text><rect height="21" width="23.79498291015625" y="24" x="139.0284423828125" class="er attributeBoxOdd"/><text style="dominant-baseline: middle; font-size: 10.2px;" transform="translate(144.0284423828125,34.5)" y="0" x="0" id="text-entity-accounts-63517279-e5db-51fd-8103-6411c1455933-attr-1-key" class="er entityLabel">PK</text><rect height="21" width="45.453216552734375" y="24" x="162.82342529296875" class="er attributeBoxOdd"/><text style="dominant-baseline: middle; font-size: 10.2px;" transform="translate(167.82342529296875,34.5)" y="0" x="0" id="text-entity-accounts-63517279-e5db-51fd-8103-6411c1455933-attr-1-comment" class="er entityLabel"/><rect height="21" width="36.947052001953125" y="45" x="0" class="er attributeBoxEven"/><text style="dominant-baseline: middle; font-size: 10.2px;" transform="translate(5,55.5)" y="0" x="0" id="text-entity-accounts-63517279-e5db-51fd-8103-6411c1455933-attr-2-type" class="er entityLabel">String</text><rect height="21" width="102.08139038085938" y="45" x="36.947052001953125" class="er attributeBoxEven"/><text style="dominant-baseline: middle; font-size: 10.2px;" transform="translate(41.947052001953125,55.5)" y="0" x="0" id="text-entity-accounts-63517279-e5db-51fd-8103-6411c1455933-attr-2-name" class="er entityLabel">type</text><rect height="21" width="23.79498291015625" y="45" x="139.0284423828125" class="er attributeBoxEven"/><text style="dominant-baseline: middle; font-size: 10.2px;" transform="translate(144.0284423828125,55.5)" y="0" x="0" id="text-entity-accounts-63517279-e5db-51fd-8103-6411c1455933-attr-2-key" class="er entityLabel"/><rect height="21" width="45.453216552734375" y="45" x="162.82342529296875" class="er attributeBoxEven"/><text style="dominant-baseline: middle; font-size: 10.2px;" transform="translate(167.82342529296875,55.5)" y="0" x="0" id="text-entity-accounts-63517279-e5db-51fd-8103-6411c1455933-attr-2-comment" class="er entityLabel"/><rect height="21" width="36.947052001953125" y="66" x="0" class="er attributeBoxOdd"/><text style="dominant-baseline: middle; font-size: 10.2px;" transform="translate(5,76.5)" y="0" x="0" id="text-entity-accounts-63517279-e5db-51fd-8103-6411c1455933-attr-3-type" class="er entityLabel">String</text><rect height="21" width="102.08139038085938" y="66" x="36.947052001953125" class="er attributeBoxOdd"/><text style="dominant-baseline: middle; font-size: 10.2px;" transform="translate(41.947052001953125,76.5)" y="0" x="0" id="text-entity-accounts-63517279-e5db-51fd-8103-6411c1455933-attr-3-name" class="er entityLabel">provider</text><rect height="21" width="23.79498291015625" y="66" x="139.0284423828125" class="er attributeBoxOdd"/><text style="dominant-baseline: middle; font-size: 10.2px;" transform="translate(144.0284423828125,76.5)" y="0" x="0" id="text-entity-accounts-63517279-e5db-51fd-8103-6411c1455933-attr-3-key" class="er entityLabel"/><rect height="21" width="45.453216552734375" y="66" x="162.82342529296875" class="er attributeBoxOdd"/><text style="dominant-baseline: middle; font-size: 10.2px;" transform="translate(167.82342529296875,76.5)" y="0" x="0" id="text-entity-accounts-63517279-e5db-51fd-8103-6411c1455933-attr-3-comment" class="er entityLabel"/><rect height="21" width="36.947052001953125" y="87" x="0" class="er attributeBoxEven"/><text style="dominant-baseline: middle; font-size: 10.2px;" transform="translate(5,97.5)" y="0" x="0" id="text-entity-accounts-63517279-e5db-51fd-8103-6411c1455933-attr-4-type" class="er entityLabel">String</text><rect height="21" width="102.08139038085938" y="87" x="36.947052001953125" class="er attributeBoxEven"/><text style="dominant-baseline: middle; font-size: 10.2px;" transform="translate(41.947052001953125,97.5)" y="0" x="0" id="text-entity-accounts-63517279-e5db-51fd-8103-6411c1455933-attr-4-name" class="er entityLabel">provider_account_id</text><rect height="21" width="23.79498291015625" y="87" x="139.0284423828125" class="er attributeBoxEven"/><text style="dominant-baseline: middle; font-size: 10.2px;" transform="translate(144.0284423828125,97.5)" y="0" x="0" id="text-entity-accounts-63517279-e5db-51fd-8103-6411c1455933-attr-4-key" class="er entityLabel"/><rect height="21" width="45.453216552734375" y="87" x="162.82342529296875" class="er attributeBoxEven"/><text style="dominant-baseline: middle; font-size: 10.2px;" transform="translate(167.82342529296875,97.5)" y="0" x="0" id="text-entity-accounts-63517279-e5db-51fd-8103-6411c1455933-attr-4-comment" class="er entityLabel"/><rect height="21" width="36.947052001953125" y="108" x="0" class="er attributeBoxOdd"/><text style="dominant-baseline: middle; font-size: 10.2px;" transform="translate(5,118.5)" y="0" x="0" id="text-entity-accounts-63517279-e5db-51fd-8103-6411c1455933-attr-5-type" class="er entityLabel">String</text><rect height="21" width="102.08139038085938" y="108" x="36.947052001953125" class="er attributeBoxOdd"/><text style="dominant-baseline: middle; font-size: 10.2px;" transform="translate(41.947052001953125,118.5)" y="0" x="0" id="text-entity-accounts-63517279-e5db-51fd-8103-6411c1455933-attr-5-name" class="er entityLabel">refresh_token</text><rect height="21" width="23.79498291015625" y="108" x="139.0284423828125" class="er attributeBoxOdd"/><text style="dominant-baseline: middle; font-size: 10.2px;" transform="translate(144.0284423828125,118.5)" y="0" x="0" id="text-entity-accounts-63517279-e5db-51fd-8103-6411c1455933-attr-5-key" class="er entityLabel"/><rect height="21" width="45.453216552734375" y="108" x="162.82342529296875" class="er attributeBoxOdd"/><text style="dominant-baseline: middle; font-size: 10.2px;" transform="translate(167.82342529296875,118.5)" y="0" x="0" id="text-entity-accounts-63517279-e5db-51fd-8103-6411c1455933-attr-5-comment" class="er entityLabel">nullable</text><rect height="21" width="36.947052001953125" y="129" x="0" class="er attributeBoxEven"/><text style="dominant-baseline: middle; font-size: 10.2px;" transform="translate(5,139.5)" y="0" x="0" id="text-entity-accounts-63517279-e5db-51fd-8103-6411c1455933-attr-6-type" class="er entityLabel">String</text><rect height="21" width="102.08139038085938" y="129" x="36.947052001953125" class="er attributeBoxEven"/><text style="dominant-baseline: middle; font-size: 10.2px;" transform="translate(41.947052001953125,139.5)" y="0" x="0" id="text-entity-accounts-63517279-e5db-51fd-8103-6411c1455933-attr-6-name" class="er entityLabel">access_token</text><rect height="21" width="23.79498291015625" y="129" x="139.0284423828125" class="er attributeBoxEven"/><text style="dominant-baseline: middle; font-size: 10.2px;" transform="translate(144.0284423828125,139.5)" y="0" x="0" id="text-entity-accounts-63517279-e5db-51fd-8103-6411c1455933-attr-6-key" class="er entityLabel"/><rect height="21" width="45.453216552734375" y="129" x="162.82342529296875" class="er attributeBoxEven"/><text style="dominant-baseline: middle; font-size: 10.2px;" transform="translate(167.82342529296875,139.5)" y="0" x="0" id="text-entity-accounts-63517279-e5db-51fd-8103-6411c1455933-attr-6-comment" class="er entityLabel">nullable</text><rect height="21" width="36.947052001953125" y="150" x="0" class="er attributeBoxOdd"/><text style="dominant-baseline: middle; font-size: 10.2px;" transform="translate(5,160.5)" y="0" x="0" id="text-entity-accounts-63517279-e5db-51fd-8103-6411c1455933-attr-7-type" class="er entityLabel">Int</text><rect height="21" width="102.08139038085938" y="150" x="36.947052001953125" class="er attributeBoxOdd"/><text style="dominant-baseline: middle; font-size: 10.2px;" transform="translate(41.947052001953125,160.5)" y="0" x="0" id="text-entity-accounts-63517279-e5db-51fd-8103-6411c1455933-attr-7-name" class="er entityLabel">expires_at</text><rect height="21" width="23.79498291015625" y="150" x="139.0284423828125" class="er attributeBoxOdd"/><text style="dominant-baseline: middle; font-size: 10.2px;" transform="translate(144.0284423828125,160.5)" y="0" x="0" id="text-entity-accounts-63517279-e5db-51fd-8103-6411c1455933-attr-7-key" class="er entityLabel"/><rect height="21" width="45.453216552734375" y="150" x="162.82342529296875" class="er attributeBoxOdd"/><text style="dominant-baseline: middle; font-size: 10.2px;" transform="translate(167.82342529296875,160.5)" y="0" x="0" id="text-entity-accounts-63517279-e5db-51fd-8103-6411c1455933-attr-7-comment" class="er entityLabel">nullable</text><rect height="21" width="36.947052001953125" y="171" x="0" class="er attributeBoxEven"/><text style="dominant-baseline: middle; font-size: 10.2px;" transform="translate(5,181.5)" y="0" x="0" id="text-entity-accounts-63517279-e5db-51fd-8103-6411c1455933-attr-8-type" class="er entityLabel">String</text><rect height="21" width="102.08139038085938" y="171" x="36.947052001953125" class="er attributeBoxEven"/><text style="dominant-baseline: middle; font-size: 10.2px;" transform="translate(41.947052001953125,181.5)" y="0" x="0" id="text-entity-accounts-63517279-e5db-51fd-8103-6411c1455933-attr-8-name" class="er entityLabel">token_type</text><rect height="21" width="23.79498291015625" y="171" x="139.0284423828125" class="er attributeBoxEven"/><text style="dominant-baseline: middle; font-size: 10.2px;" transform="translate(144.0284423828125,181.5)" y="0" x="0" id="text-entity-accounts-63517279-e5db-51fd-8103-6411c1455933-attr-8-key" class="er entityLabel"/><rect height="21" width="45.453216552734375" y="171" x="162.82342529296875" class="er attributeBoxEven"/><text style="dominant-baseline: middle; font-size: 10.2px;" transform="translate(167.82342529296875,181.5)" y="0" x="0" id="text-entity-accounts-63517279-e5db-51fd-8103-6411c1455933-attr-8-comment" class="er entityLabel">nullable</text><rect height="21" width="36.947052001953125" y="192" x="0" class="er attributeBoxOdd"/><text style="dominant-baseline: middle; font-size: 10.2px;" transform="translate(5,202.5)" y="0" x="0" id="text-entity-accounts-63517279-e5db-51fd-8103-6411c1455933-attr-9-type" class="er entityLabel">String</text><rect height="21" width="102.08139038085938" y="192" x="36.947052001953125" class="er attributeBoxOdd"/><text style="dominant-baseline: middle; font-size: 10.2px;" transform="translate(41.947052001953125,202.5)" y="0" x="0" id="text-entity-accounts-63517279-e5db-51fd-8103-6411c1455933-attr-9-name" class="er entityLabel">scope</text><rect height="21" width="23.79498291015625" y="192" x="139.0284423828125" class="er attributeBoxOdd"/><text style="dominant-baseline: middle; font-size: 10.2px;" transform="translate(144.0284423828125,202.5)" y="0" x="0" id="text-entity-accounts-63517279-e5db-51fd-8103-6411c1455933-attr-9-key" class="er entityLabel"/><rect height="21" width="45.453216552734375" y="192" x="162.82342529296875" class="er attributeBoxOdd"/><text style="dominant-baseline: middle; font-size: 10.2px;" transform="translate(167.82342529296875,202.5)" y="0" x="0" id="text-entity-accounts-63517279-e5db-51fd-8103-6411c1455933-attr-9-comment" class="er entityLabel">nullable</text><rect height="21" width="36.947052001953125" y="213" x="0" class="er attributeBoxEven"/><text style="dominant-baseline: middle; font-size: 10.2px;" transform="translate(5,223.5)" y="0" x="0" id="text-entity-accounts-63517279-e5db-51fd-8103-6411c1455933-attr-10-type" class="er entityLabel">String</text><rect height="21" width="102.08139038085938" y="213" x="36.947052001953125" class="er attributeBoxEven"/><text style="dominant-baseline: middle; font-size: 10.2px;" transform="translate(41.947052001953125,223.5)" y="0" x="0" id="text-entity-accounts-63517279-e5db-51fd-8103-6411c1455933-attr-10-name" class="er entityLabel">id_token</text><rect height="21" width="23.79498291015625" y="213" x="139.0284423828125" class="er attributeBoxEven"/><text style="dominant-baseline: middle; font-size: 10.2px;" transform="translate(144.0284423828125,223.5)" y="0" x="0" id="text-entity-accounts-63517279-e5db-51fd-8103-6411c1455933-attr-10-key" class="er entityLabel"/><rect height="21" width="45.453216552734375" y="213" x="162.82342529296875" class="er attributeBoxEven"/><text style="dominant-baseline: middle; font-size: 10.2px;" transform="translate(167.82342529296875,223.5)" y="0" x="0" id="text-entity-accounts-63517279-e5db-51fd-8103-6411c1455933-attr-10-comment" class="er entityLabel">nullable</text><rect height="21" width="36.947052001953125" y="234" x="0" class="er attributeBoxOdd"/><text style="dominant-baseline: middle; font-size: 10.2px;" transform="translate(5,244.5)" y="0" x="0" id="text-entity-accounts-63517279-e5db-51fd-8103-6411c1455933-attr-11-type" class="er entityLabel">String</text><rect height="21" width="102.08139038085938" y="234" x="36.947052001953125" class="er attributeBoxOdd"/><text style="dominant-baseline: middle; font-size: 10.2px;" transform="translate(41.947052001953125,244.5)" y="0" x="0" id="text-entity-accounts-63517279-e5db-51fd-8103-6411c1455933-attr-11-name" class="er entityLabel">session_state</text><rect height="21" width="23.79498291015625" y="234" x="139.0284423828125" class="er attributeBoxOdd"/><text style="dominant-baseline: middle; font-size: 10.2px;" transform="translate(144.0284423828125,244.5)" y="0" x="0" id="text-entity-accounts-63517279-e5db-51fd-8103-6411c1455933-attr-11-key" class="er entityLabel"/><rect height="21" width="45.453216552734375" y="234" x="162.82342529296875" class="er attributeBoxOdd"/><text style="dominant-baseline: middle; font-size: 10.2px;" transform="translate(167.82342529296875,244.5)" y="0" x="0" id="text-entity-accounts-63517279-e5db-51fd-8103-6411c1455933-attr-11-comment" class="er entityLabel">nullable</text></g><g transform="translate(328.2766418457031,104 )" id="entity-sessions-74cde75f-8a79-5b7e-952e-f1553c3e4880"><rect height="87" width="153.04873657226562" y="0" x="0" class="er entityBox"/><text style="dominant-baseline: middle; text-anchor: middle; font-size: 12px;" transform="translate(76.52436828613281,12)" y="0" x="0" id="text-entity-sessions-74cde75f-8a79-5b7e-952e-f1553c3e4880" class="er entityLabel">sessions</text><rect height="21" width="54.113128662109375" y="24" x="0" class="er attributeBoxOdd"/><text style="dominant-baseline: middle; font-size: 10.2px;" transform="translate(5,34.5)" y="0" x="0" id="text-entity-sessions-74cde75f-8a79-5b7e-952e-f1553c3e4880-attr-1-type" class="er entityLabel">String</text><rect height="21" width="75.140625" y="24" x="54.113128662109375" class="er attributeBoxOdd"/><text style="dominant-baseline: middle; font-size: 10.2px;" transform="translate(59.113128662109375,34.5)" y="0" x="0" id="text-entity-sessions-74cde75f-8a79-5b7e-952e-f1553c3e4880-attr-1-name" class="er entityLabel">id</text><rect height="21" width="23.79498291015625" y="24" x="129.25375366210938" class="er attributeBoxOdd"/><text style="dominant-baseline: middle; font-size: 10.2px;" transform="translate(134.25375366210938,34.5)" y="0" x="0" id="text-entity-sessions-74cde75f-8a79-5b7e-952e-f1553c3e4880-attr-1-key" class="er entityLabel">PK</text><rect height="21" width="54.113128662109375" y="45" x="0" class="er attributeBoxEven"/><text style="dominant-baseline: middle; font-size: 10.2px;" transform="translate(5,55.5)" y="0" x="0" id="text-entity-sessions-74cde75f-8a79-5b7e-952e-f1553c3e4880-attr-2-type" class="er entityLabel">String</text><rect height="21" width="75.140625" y="45" x="54.113128662109375" class="er attributeBoxEven"/><text style="dominant-baseline: middle; font-size: 10.2px;" transform="translate(59.113128662109375,55.5)" y="0" x="0" id="text-entity-sessions-74cde75f-8a79-5b7e-952e-f1553c3e4880-attr-2-name" class="er entityLabel">session_token</text><rect height="21" width="23.79498291015625" y="45" x="129.25375366210938" class="er attributeBoxEven"/><text style="dominant-baseline: middle; font-size: 10.2px;" transform="translate(134.25375366210938,55.5)" y="0" x="0" id="text-entity-sessions-74cde75f-8a79-5b7e-952e-f1553c3e4880-attr-2-key" class="er entityLabel"/><rect height="21" width="54.113128662109375" y="66" x="0" class="er attributeBoxOdd"/><text style="dominant-baseline: middle; font-size: 10.2px;" transform="translate(5,76.5)" y="0" x="0" id="text-entity-sessions-74cde75f-8a79-5b7e-952e-f1553c3e4880-attr-3-type" class="er entityLabel">DateTime</text><rect height="21" width="75.140625" y="66" x="54.113128662109375" class="er attributeBoxOdd"/><text style="dominant-baseline: middle; font-size: 10.2px;" transform="translate(59.113128662109375,76.5)" y="0" x="0" id="text-entity-sessions-74cde75f-8a79-5b7e-952e-f1553c3e4880-attr-3-name" class="er entityLabel">expires</text><rect height="21" width="23.79498291015625" y="66" x="129.25375366210938" class="er attributeBoxOdd"/><text style="dominant-baseline: middle; font-size: 10.2px;" transform="translate(134.25375366210938,76.5)" y="0" x="0" id="text-entity-sessions-74cde75f-8a79-5b7e-952e-f1553c3e4880-attr-3-key" class="er entityLabel"/></g><g transform="translate(581.3253784179688,104 )" id="entity-verifcationtokens-ee02f6f3-7537-5dda-bcc1-61b28fb2aa64"><rect height="87" width="126.734375" y="0" x="0" class="er entityBox"/><text style="dominant-baseline: middle; text-anchor: middle; font-size: 12px;" transform="translate(63.3671875,12)" y="0" x="0" id="text-entity-verifcationtokens-ee02f6f3-7537-5dda-bcc1-61b28fb2aa64" class="er entityLabel">verifcation_tokens</text><rect height="21" width="65.86672973632812" y="24" x="0" class="er attributeBoxOdd"/><text style="dominant-baseline: middle; font-size: 10.2px;" transform="translate(5,34.5)" y="0" x="0" id="text-entity-verifcationtokens-ee02f6f3-7537-5dda-bcc1-61b28fb2aa64-attr-1-type" class="er entityLabel">String</text><rect height="21" width="60.867645263671875" y="24" x="65.86672973632812" class="er attributeBoxOdd"/><text style="dominant-baseline: middle; font-size: 10.2px;" transform="translate(70.86672973632812,34.5)" y="0" x="0" id="text-entity-verifcationtokens-ee02f6f3-7537-5dda-bcc1-61b28fb2aa64-attr-1-name" class="er entityLabel">identifier</text><rect height="21" width="65.86672973632812" y="45" x="0" class="er attributeBoxEven"/><text style="dominant-baseline: middle; font-size: 10.2px;" transform="translate(5,55.5)" y="0" x="0" id="text-entity-verifcationtokens-ee02f6f3-7537-5dda-bcc1-61b28fb2aa64-attr-2-type" class="er entityLabel">String</text><rect height="21" width="60.867645263671875" y="45" x="65.86672973632812" class="er attributeBoxEven"/><text style="dominant-baseline: middle; font-size: 10.2px;" transform="translate(70.86672973632812,55.5)" y="0" x="0" id="text-entity-verifcationtokens-ee02f6f3-7537-5dda-bcc1-61b28fb2aa64-attr-2-name" class="er entityLabel">token</text><rect height="21" width="65.86672973632812" y="66" x="0" class="er attributeBoxOdd"/><text style="dominant-baseline: middle; font-size: 10.2px;" transform="translate(5,76.5)" y="0" x="0" id="text-entity-verifcationtokens-ee02f6f3-7537-5dda-bcc1-61b28fb2aa64-attr-3-type" class="er entityLabel">DateTime</text><rect height="21" width="60.867645263671875" y="66" x="65.86672973632812" class="er attributeBoxOdd"/><text style="dominant-baseline: middle; font-size: 10.2px;" transform="translate(70.86672973632812,76.5)" y="0" x="0" id="text-entity-verifcationtokens-ee02f6f3-7537-5dda-bcc1-61b28fb2aa64-attr-3-name" class="er entityLabel">expires</text></g><g transform="translate(876.1695556640625,417 )" id="entity-Category-1a07ff93-e37c-5c4b-81d2-6cefab6d4eed"><rect height="66" width="100" y="0" x="0" class="er entityBox"/><text style="dominant-baseline: middle; text-anchor: middle; font-size: 12px;" transform="translate(50,12)" y="0" x="0" id="text-entity-Category-1a07ff93-e37c-5c4b-81d2-6cefab6d4eed" class="er entityLabel">Category</text><rect height="21" width="41.303873697916664" y="24" x="0" class="er attributeBoxOdd"/><text style="dominant-baseline: middle; font-size: 10.2px;" transform="translate(5,34.5)" y="0" x="0" id="text-entity-Category-1a07ff93-e37c-5c4b-81d2-6cefab6d4eed-attr-1-type" class="er entityLabel">String</text><rect height="21" width="30.544321695963543" y="24" x="41.303873697916664" class="er attributeBoxOdd"/><text style="dominant-baseline: middle; font-size: 10.2px;" transform="translate(46.303873697916664,34.5)" y="0" x="0" id="text-entity-Category-1a07ff93-e37c-5c4b-81d2-6cefab6d4eed-attr-1-name" class="er entityLabel">id</text><rect height="21" width="28.151804606119793" y="24" x="71.8481953938802" class="er attributeBoxOdd"/><text style="dominant-baseline: middle; font-size: 10.2px;" transform="translate(76.8481953938802,34.5)" y="0" x="0" id="text-entity-Category-1a07ff93-e37c-5c4b-81d2-6cefab6d4eed-attr-1-key" class="er entityLabel">PK</text><rect height="21" width="41.303873697916664" y="45" x="0" class="er attributeBoxEven"/><text style="dominant-baseline: middle; font-size: 10.2px;" transform="translate(5,55.5)" y="0" x="0" id="text-entity-Category-1a07ff93-e37c-5c4b-81d2-6cefab6d4eed-attr-2-type" class="er entityLabel">String</text><rect height="21" width="30.544321695963543" y="45" x="41.303873697916664" class="er attributeBoxEven"/><text style="dominant-baseline: middle; font-size: 10.2px;" transform="translate(46.303873697916664,55.5)" y="0" x="0" id="text-entity-Category-1a07ff93-e37c-5c4b-81d2-6cefab6d4eed-attr-2-name" class="er entityLabel">title</text><rect height="21" width="28.151804606119793" y="45" x="71.8481953938802" class="er attributeBoxEven"/><text style="dominant-baseline: middle; font-size: 10.2px;" transform="translate(76.8481953938802,55.5)" y="0" x="0" id="text-entity-Category-1a07ff93-e37c-5c4b-81d2-6cefab6d4eed-attr-2-key" class="er entityLabel"/></g><g transform="translate(808.0597534179688,83 )" id="entity-Transaction-7f4cb715-d743-519d-9786-b0e2ee68e3b7"><rect height="129" width="136.2196044921875" y="0" x="0" class="er entityBox"/><text style="dominant-baseline: middle; text-anchor: middle; font-size: 12px;" transform="translate(68.10980224609375,12)" y="0" x="0" id="text-entity-Transaction-7f4cb715-d743-519d-9786-b0e2ee68e3b7" class="er entityLabel">Transaction</text><rect height="21" width="54.113128662109375" y="24" x="0" class="er attributeBoxOdd"/><text style="dominant-baseline: middle; font-size: 10.2px;" transform="translate(5,34.5)" y="0" x="0" id="text-entity-Transaction-7f4cb715-d743-519d-9786-b0e2ee68e3b7-attr-1-type" class="er entityLabel">String</text><rect height="21" width="58.311492919921875" y="24" x="54.113128662109375" class="er attributeBoxOdd"/><text style="dominant-baseline: middle; font-size: 10.2px;" transform="translate(59.113128662109375,34.5)" y="0" x="0" id="text-entity-Transaction-7f4cb715-d743-519d-9786-b0e2ee68e3b7-attr-1-name" class="er entityLabel">id</text><rect height="21" width="23.79498291015625" y="24" x="112.42462158203125" class="er attributeBoxOdd"/><text style="dominant-baseline: middle; font-size: 10.2px;" transform="translate(117.42462158203125,34.5)" y="0" x="0" id="text-entity-Transaction-7f4cb715-d743-519d-9786-b0e2ee68e3b7-attr-1-key" class="er entityLabel">PK</text><rect height="21" width="54.113128662109375" y="45" x="0" class="er attributeBoxEven"/><text style="dominant-baseline: middle; font-size: 10.2px;" transform="translate(5,55.5)" y="0" x="0" id="text-entity-Transaction-7f4cb715-d743-519d-9786-b0e2ee68e3b7-attr-2-type" class="er entityLabel">String</text><rect height="21" width="58.311492919921875" y="45" x="54.113128662109375" class="er attributeBoxEven"/><text style="dominant-baseline: middle; font-size: 10.2px;" transform="translate(59.113128662109375,55.5)" y="0" x="0" id="text-entity-Transaction-7f4cb715-d743-519d-9786-b0e2ee68e3b7-attr-2-name" class="er entityLabel">title</text><rect height="21" width="23.79498291015625" y="45" x="112.42462158203125" class="er attributeBoxEven"/><text style="dominant-baseline: middle; font-size: 10.2px;" transform="translate(117.42462158203125,55.5)" y="0" x="0" id="text-entity-Transaction-7f4cb715-d743-519d-9786-b0e2ee68e3b7-attr-2-key" class="er entityLabel"/><rect height="21" width="54.113128662109375" y="66" x="0" class="er attributeBoxOdd"/><text style="dominant-baseline: middle; font-size: 10.2px;" transform="translate(5,76.5)" y="0" x="0" id="text-entity-Transaction-7f4cb715-d743-519d-9786-b0e2ee68e3b7-attr-3-type" class="er entityLabel">Decimal</text><rect height="21" width="58.311492919921875" y="66" x="54.113128662109375" class="er attributeBoxOdd"/><text style="dominant-baseline: middle; font-size: 10.2px;" transform="translate(59.113128662109375,76.5)" y="0" x="0" id="text-entity-Transaction-7f4cb715-d743-519d-9786-b0e2ee68e3b7-attr-3-name" class="er entityLabel">price</text><rect height="21" width="23.79498291015625" y="66" x="112.42462158203125" class="er attributeBoxOdd"/><text style="dominant-baseline: middle; font-size: 10.2px;" transform="translate(117.42462158203125,76.5)" y="0" x="0" id="text-entity-Transaction-7f4cb715-d743-519d-9786-b0e2ee68e3b7-attr-3-key" class="er entityLabel"/><rect height="21" width="54.113128662109375" y="87" x="0" class="er attributeBoxEven"/><text style="dominant-baseline: middle; font-size: 10.2px;" transform="translate(5,97.5)" y="0" x="0" id="text-entity-Transaction-7f4cb715-d743-519d-9786-b0e2ee68e3b7-attr-4-type" class="er entityLabel">String</text><rect height="21" width="58.311492919921875" y="87" x="54.113128662109375" class="er attributeBoxEven"/><text style="dominant-baseline: middle; font-size: 10.2px;" transform="translate(59.113128662109375,97.5)" y="0" x="0" id="text-entity-Transaction-7f4cb715-d743-519d-9786-b0e2ee68e3b7-attr-4-name" class="er entityLabel">type</text><rect height="21" width="23.79498291015625" y="87" x="112.42462158203125" class="er attributeBoxEven"/><text style="dominant-baseline: middle; font-size: 10.2px;" transform="translate(117.42462158203125,97.5)" y="0" x="0" id="text-entity-Transaction-7f4cb715-d743-519d-9786-b0e2ee68e3b7-attr-4-key" class="er entityLabel"/><rect height="21" width="54.113128662109375" y="108" x="0" class="er attributeBoxOdd"/><text style="dominant-baseline: middle; font-size: 10.2px;" transform="translate(5,118.5)" y="0" x="0" id="text-entity-Transaction-7f4cb715-d743-519d-9786-b0e2ee68e3b7-attr-5-type" class="er entityLabel">DateTime</text><rect height="21" width="58.311492919921875" y="108" x="54.113128662109375" class="er attributeBoxOdd"/><text style="dominant-baseline: middle; font-size: 10.2px;" transform="translate(59.113128662109375,118.5)" y="0" x="0" id="text-entity-Transaction-7f4cb715-d743-519d-9786-b0e2ee68e3b7-attr-5-name" class="er entityLabel">created_at</text><rect height="21" width="23.79498291015625" y="108" x="112.42462158203125" class="er attributeBoxOdd"/><text style="dominant-baseline: middle; font-size: 10.2px;" transform="translate(117.42462158203125,118.5)" y="0" x="0" id="text-entity-Transaction-7f4cb715-d743-519d-9786-b0e2ee68e3b7-attr-5-key" class="er entityLabel"/></g><rect height="14" width="23.34765625" y="351.1451110839844" x="191.2213134765625" class="er relationshipLabelBox"/><text style="text-anchor: middle; dominant-baseline: middle; font-size: 12px;" y="358.1451110839844" x="202.8951416015625" id="rel1" class="er relationshipLabel">user</text><rect height="14" width="23.34765625" y="276" x="393.127197265625" class="er relationshipLabelBox"/><text style="text-anchor: middle; dominant-baseline: middle; font-size: 12px;" y="283" x="404.801025390625" id="rel2" class="er relationshipLabel">user</text><rect height="14" width="46.03125" y="306.1254577636719" x="896.4577026367188" class="er relationshipLabelBox"/><text style="text-anchor: middle; dominant-baseline: middle; font-size: 12px;" y="313.1254577636719" x="919.4733276367188" id="rel3" class="er relationshipLabel">category</text><rect height="14" width="23.34765625" y="321.9784851074219" x="652.0084838867188" class="er relationshipLabelBox"/><text style="text-anchor: middle; dominant-baseline: middle; font-size: 12px;" y="328.9784851074219" x="663.6823120117188" id="rel4" class="er relationshipLabel">user</text></svg>