<svg width="172" height="36" viewBox="0 0 172 36" fill="none" xmlns="http://www.w3.org/2000/svg">
<path d="M64.8262 19.8145H61.1641V17.7051H64.8262C65.4251 17.7051 65.9102 17.6074 66.2812 17.4121C66.6589 17.2103 66.9355 16.9368 67.1113 16.5918C67.2871 16.2402 67.375 15.8398 67.375 15.3906C67.375 14.9544 67.2871 14.5475 67.1113 14.1699C66.9355 13.7923 66.6589 13.4863 66.2812 13.252C65.9102 13.0176 65.4251 12.9004 64.8262 12.9004H62.043V25H59.3574V10.7812H64.8262C65.9329 10.7812 66.877 10.9798 67.6582 11.377C68.446 11.7676 69.0449 12.3112 69.4551 13.0078C69.8717 13.6979 70.0801 14.4857 70.0801 15.3711C70.0801 16.2891 69.8717 17.0801 69.4551 17.7441C69.0449 18.4082 68.446 18.9193 67.6582 19.2773C66.877 19.6354 65.9329 19.8145 64.8262 19.8145ZM76.6035 25.1953C75.8027 25.1953 75.0833 25.0651 74.4453 24.8047C73.8073 24.5443 73.2637 24.1829 72.8145 23.7207C72.3717 23.252 72.0299 22.7083 71.7891 22.0898C71.5547 21.4648 71.4375 20.7943 71.4375 20.0781V19.6875C71.4375 18.8737 71.5547 18.1348 71.7891 17.4707C72.0234 16.8001 72.3555 16.224 72.7852 15.7422C73.2148 15.2604 73.7292 14.8893 74.3281 14.6289C74.9271 14.3685 75.5879 14.2383 76.3105 14.2383C77.0592 14.2383 77.7201 14.3652 78.293 14.6191C78.8659 14.8665 79.3444 15.2181 79.7285 15.6738C80.1126 16.1296 80.4023 16.6764 80.5977 17.3145C80.793 17.946 80.8906 18.6458 80.8906 19.4141V20.498H72.6094V18.7207H78.3516V18.5254C78.3385 18.1152 78.2604 17.7409 78.1172 17.4023C77.974 17.0573 77.7526 16.7839 77.4531 16.582C77.1536 16.3737 76.7663 16.2695 76.291 16.2695C75.9069 16.2695 75.5716 16.3542 75.2852 16.5234C75.0052 16.6862 74.7708 16.9206 74.582 17.2266C74.3997 17.526 74.263 17.8841 74.1719 18.3008C74.0807 18.7174 74.0352 19.1797 74.0352 19.6875V20.0781C74.0352 20.5208 74.0938 20.931 74.2109 21.3086C74.3346 21.6862 74.5137 22.015 74.748 22.2949C74.9889 22.5684 75.2754 22.7832 75.6074 22.9395C75.946 23.0892 76.3301 23.1641 76.7598 23.1641C77.3001 23.1641 77.7884 23.0599 78.2246 22.8516C78.6673 22.6367 79.0514 22.321 79.377 21.9043L80.6758 23.252C80.4544 23.5775 80.1549 23.89 79.7773 24.1895C79.4062 24.4889 78.957 24.7331 78.4297 24.9219C77.9023 25.1042 77.2936 25.1953 76.6035 25.1953ZM85.1484 16.6895V25H82.5703V14.4336H84.9922L85.1484 16.6895ZM84.7383 19.3359H83.9766C83.9831 18.5677 84.0872 17.8711 84.2891 17.2461C84.4909 16.6211 84.7741 16.084 85.1387 15.6348C85.5098 15.1855 85.9492 14.8405 86.457 14.5996C86.9648 14.3587 87.5312 14.2383 88.1562 14.2383C88.6641 14.2383 89.123 14.3099 89.5332 14.4531C89.9434 14.5964 90.2949 14.8242 90.5879 15.1367C90.8874 15.4492 91.1152 15.8594 91.2715 16.3672C91.4342 16.8685 91.5156 17.487 91.5156 18.2227V25H88.918V18.2031C88.918 17.7214 88.8464 17.3405 88.7031 17.0605C88.5664 16.7806 88.3646 16.582 88.0977 16.4648C87.8372 16.3477 87.515 16.2891 87.1309 16.2891C86.7337 16.2891 86.3854 16.3704 86.0859 16.5332C85.793 16.6895 85.5456 16.9076 85.3438 17.1875C85.1484 17.4674 84.9987 17.7897 84.8945 18.1543C84.7904 18.5189 84.7383 18.9128 84.7383 19.3359ZM96.3203 16.6895V25H93.7422V14.4336H96.1641L96.3203 16.6895ZM95.9102 19.3359H95.1484C95.1549 18.5677 95.2591 17.8711 95.4609 17.2461C95.6628 16.6211 95.946 16.084 96.3105 15.6348C96.6816 15.1855 97.1211 14.8405 97.6289 14.5996C98.1367 14.3587 98.7031 14.2383 99.3281 14.2383C99.8359 14.2383 100.295 14.3099 100.705 14.4531C101.115 14.5964 101.467 14.8242 101.76 15.1367C102.059 15.4492 102.287 15.8594 102.443 16.3672C102.606 16.8685 102.688 17.487 102.688 18.2227V25H100.09V18.2031C100.09 17.7214 100.018 17.3405 99.875 17.0605C99.7383 16.7806 99.5365 16.582 99.2695 16.4648C99.0091 16.3477 98.6868 16.2891 98.3027 16.2891C97.9056 16.2891 97.5573 16.3704 97.2578 16.5332C96.9648 16.6895 96.7174 16.9076 96.5156 17.1875C96.3203 17.4674 96.1706 17.7897 96.0664 18.1543C95.9622 18.5189 95.9102 18.9128 95.9102 19.3359ZM108.059 23.8281L110.891 14.4336H113.654L109.416 26.6016C109.318 26.862 109.191 27.1452 109.035 27.4512C108.885 27.7572 108.684 28.0469 108.43 28.3203C108.176 28.6003 107.857 28.8281 107.473 29.0039C107.095 29.1797 106.636 29.2676 106.096 29.2676C105.861 29.2676 105.653 29.2513 105.471 29.2188C105.288 29.1862 105.096 29.1439 104.895 29.0918V27.1582C104.96 27.1647 105.035 27.168 105.119 27.168C105.21 27.1745 105.288 27.1777 105.354 27.1777C105.731 27.1777 106.044 27.1322 106.291 27.041C106.538 26.9564 106.737 26.8164 106.887 26.6211C107.043 26.4323 107.173 26.1849 107.277 25.8789L108.059 23.8281ZM106.662 14.4336L109.055 22.2168L109.475 24.9414L107.697 25.2637L103.879 14.4336H106.662Z" fill="white"/>
<path d="M118.854 22.2754L121.686 10.7812H123.219L123.316 13.2031L120.289 25H118.668L118.854 22.2754ZM117.066 10.7812L119.391 22.2363V25H117.623L114.4 10.7812H117.066ZM126.256 22.1875L128.541 10.7812H131.217L127.994 25H126.227L126.256 22.1875ZM123.951 10.7812L126.783 22.3145L126.949 25H125.328L122.311 13.1934L122.428 10.7812H123.951ZM135.455 14.4336V25H132.867V14.4336H135.455ZM132.691 11.6699C132.691 11.2858 132.822 10.9668 133.082 10.7129C133.349 10.459 133.707 10.332 134.156 10.332C134.605 10.332 134.96 10.459 135.221 10.7129C135.488 10.9668 135.621 11.2858 135.621 11.6699C135.621 12.0475 135.488 12.3633 135.221 12.6172C134.96 12.8711 134.605 12.998 134.156 12.998C133.707 12.998 133.349 12.8711 133.082 12.6172C132.822 12.3633 132.691 12.0475 132.691 11.6699ZM143.727 22.1094C143.727 21.888 143.668 21.6895 143.551 21.5137C143.434 21.3379 143.212 21.1784 142.887 21.0352C142.568 20.8854 142.099 20.7454 141.48 20.6152C140.934 20.498 140.429 20.3516 139.967 20.1758C139.505 20 139.107 19.7884 138.775 19.541C138.443 19.2871 138.183 18.9909 137.994 18.6523C137.812 18.3073 137.721 17.9102 137.721 17.4609C137.721 17.0247 137.815 16.6146 138.004 16.2305C138.193 15.8398 138.466 15.498 138.824 15.2051C139.182 14.9056 139.618 14.6712 140.133 14.502C140.647 14.3262 141.227 14.2383 141.871 14.2383C142.77 14.2383 143.541 14.3848 144.186 14.6777C144.837 14.9707 145.335 15.3743 145.68 15.8887C146.025 16.3965 146.197 16.9694 146.197 17.6074H143.619C143.619 17.3275 143.554 17.0736 143.424 16.8457C143.3 16.6178 143.108 16.4355 142.848 16.2988C142.587 16.1556 142.258 16.084 141.861 16.084C141.503 16.084 141.201 16.1426 140.953 16.2598C140.712 16.377 140.53 16.5299 140.406 16.7188C140.283 16.9076 140.221 17.1159 140.221 17.3438C140.221 17.513 140.253 17.666 140.318 17.8027C140.39 17.9329 140.504 18.0534 140.66 18.1641C140.816 18.2747 141.028 18.3757 141.295 18.4668C141.568 18.5579 141.904 18.6458 142.301 18.7305C143.089 18.8867 143.775 19.0951 144.361 19.3555C144.954 19.6094 145.416 19.9479 145.748 20.3711C146.08 20.7943 146.246 21.3346 146.246 21.9922C146.246 22.4609 146.145 22.8906 145.943 23.2812C145.742 23.6654 145.449 24.0007 145.064 24.2871C144.68 24.5736 144.221 24.7982 143.688 24.9609C143.154 25.1172 142.551 25.1953 141.881 25.1953C140.911 25.1953 140.09 25.0228 139.42 24.6777C138.749 24.3262 138.242 23.8835 137.896 23.3496C137.551 22.8092 137.379 22.2493 137.379 21.6699H139.85C139.869 22.0801 139.98 22.4089 140.182 22.6562C140.383 22.9036 140.637 23.0827 140.943 23.1934C141.256 23.2975 141.585 23.3496 141.93 23.3496C142.32 23.3496 142.649 23.2975 142.916 23.1934C143.183 23.0827 143.385 22.9362 143.521 22.7539C143.658 22.5651 143.727 22.3503 143.727 22.1094ZM152.955 25.1953C152.154 25.1953 151.435 25.0651 150.797 24.8047C150.159 24.5443 149.615 24.1829 149.166 23.7207C148.723 23.252 148.382 22.7083 148.141 22.0898C147.906 21.4648 147.789 20.7943 147.789 20.0781V19.6875C147.789 18.8737 147.906 18.1348 148.141 17.4707C148.375 16.8001 148.707 16.224 149.137 15.7422C149.566 15.2604 150.081 14.8893 150.68 14.6289C151.279 14.3685 151.939 14.2383 152.662 14.2383C153.411 14.2383 154.072 14.3652 154.645 14.6191C155.217 14.8665 155.696 15.2181 156.08 15.6738C156.464 16.1296 156.754 16.6764 156.949 17.3145C157.145 17.946 157.242 18.6458 157.242 19.4141V20.498H148.961V18.7207H154.703V18.5254C154.69 18.1152 154.612 17.7409 154.469 17.4023C154.326 17.0573 154.104 16.7839 153.805 16.582C153.505 16.3737 153.118 16.2695 152.643 16.2695C152.258 16.2695 151.923 16.3542 151.637 16.5234C151.357 16.6862 151.122 16.9206 150.934 17.2266C150.751 17.526 150.615 17.8841 150.523 18.3008C150.432 18.7174 150.387 19.1797 150.387 19.6875V20.0781C150.387 20.5208 150.445 20.931 150.562 21.3086C150.686 21.6862 150.865 22.015 151.1 22.2949C151.34 22.5684 151.627 22.7832 151.959 22.9395C152.298 23.0892 152.682 23.1641 153.111 23.1641C153.652 23.1641 154.14 23.0599 154.576 22.8516C155.019 22.6367 155.403 22.321 155.729 21.9043L157.027 23.252C156.806 23.5775 156.507 23.89 156.129 24.1895C155.758 24.4889 155.309 24.7331 154.781 24.9219C154.254 25.1042 153.645 25.1953 152.955 25.1953Z" fill="#2563EB"/>
<path d="M35.5 18C35.5 27.665 27.665 35.5 18 35.5C8.33502 35.5 0.5 27.665 0.5 18C0.5 8.33502 8.33502 0.5 18 0.5C27.665 0.5 35.5 8.33502 35.5 18Z" fill="#FAFAFA" stroke="#323238"/>
<path d="M49.5 18C49.5 27.665 41.665 35.5 32 35.5C22.335 35.5 14.5 27.665 14.5 18C14.5 8.33502 22.335 0.5 32 0.5C41.665 0.5 49.5 8.33502 49.5 18Z" fill="#2563EB" stroke="#323238"/>
</svg>
