<svg width="397" height="64" viewBox="0 0 397 64" fill="none" xmlns="http://www.w3.org/2000/svg">
<path d="M113.383 40.5547H104.594V35.4922H113.383C114.82 35.4922 115.984 35.2578 116.875 34.7891C117.781 34.3047 118.445 33.6484 118.867 32.8203C119.289 31.9766 119.5 31.0156 119.5 29.9375C119.5 28.8906 119.289 27.9141 118.867 27.0078C118.445 26.1016 117.781 25.3672 116.875 24.8047C115.984 24.2422 114.82 23.9609 113.383 23.9609H106.703V53H100.258V18.875H113.383C116.039 18.875 118.305 19.3516 120.18 20.3047C122.07 21.2422 123.508 22.5469 124.492 24.2188C125.492 25.875 125.992 27.7656 125.992 29.8906C125.992 32.0938 125.492 33.9922 124.492 35.5859C123.508 37.1797 122.07 38.4062 120.18 39.2656C118.305 40.125 116.039 40.5547 113.383 40.5547ZM141.648 53.4688C139.727 53.4688 138 53.1562 136.469 52.5312C134.938 51.9062 133.633 51.0391 132.555 49.9297C131.492 48.8047 130.672 47.5 130.094 46.0156C129.531 44.5156 129.25 42.9062 129.25 41.1875V40.25C129.25 38.2969 129.531 36.5234 130.094 34.9297C130.656 33.3203 131.453 31.9375 132.484 30.7812C133.516 29.625 134.75 28.7344 136.188 28.1094C137.625 27.4844 139.211 27.1719 140.945 27.1719C142.742 27.1719 144.328 27.4766 145.703 28.0859C147.078 28.6797 148.227 29.5234 149.148 30.6172C150.07 31.7109 150.766 33.0234 151.234 34.5547C151.703 36.0703 151.938 37.75 151.938 39.5938V42.1953H132.062V37.9297H145.844V37.4609C145.812 36.4766 145.625 35.5781 145.281 34.7656C144.938 33.9375 144.406 33.2812 143.688 32.7969C142.969 32.2969 142.039 32.0469 140.898 32.0469C139.977 32.0469 139.172 32.25 138.484 32.6562C137.812 33.0469 137.25 33.6094 136.797 34.3438C136.359 35.0625 136.031 35.9219 135.812 36.9219C135.594 37.9219 135.484 39.0312 135.484 40.25V41.1875C135.484 42.25 135.625 43.2344 135.906 44.1406C136.203 45.0469 136.633 45.8359 137.195 46.5078C137.773 47.1641 138.461 47.6797 139.258 48.0547C140.07 48.4141 140.992 48.5938 142.023 48.5938C143.32 48.5938 144.492 48.3438 145.539 47.8438C146.602 47.3281 147.523 46.5703 148.305 45.5703L151.422 48.8047C150.891 49.5859 150.172 50.3359 149.266 51.0547C148.375 51.7734 147.297 52.3594 146.031 52.8125C144.766 53.25 143.305 53.4688 141.648 53.4688ZM162.156 33.0547V53H155.969V27.6406H161.781L162.156 33.0547ZM161.172 39.4062H159.344C159.359 37.5625 159.609 35.8906 160.094 34.3906C160.578 32.8906 161.258 31.6016 162.133 30.5234C163.023 29.4453 164.078 28.6172 165.297 28.0391C166.516 27.4609 167.875 27.1719 169.375 27.1719C170.594 27.1719 171.695 27.3438 172.68 27.6875C173.664 28.0312 174.508 28.5781 175.211 29.3281C175.93 30.0781 176.477 31.0625 176.852 32.2812C177.242 33.4844 177.438 34.9688 177.438 36.7344V53H171.203V36.6875C171.203 35.5312 171.031 34.6172 170.688 33.9453C170.359 33.2734 169.875 32.7969 169.234 32.5156C168.609 32.2344 167.836 32.0938 166.914 32.0938C165.961 32.0938 165.125 32.2891 164.406 32.6797C163.703 33.0547 163.109 33.5781 162.625 34.25C162.156 34.9219 161.797 35.6953 161.547 36.5703C161.297 37.4453 161.172 38.3906 161.172 39.4062ZM188.969 33.0547V53H182.781V27.6406H188.594L188.969 33.0547ZM187.984 39.4062H186.156C186.172 37.5625 186.422 35.8906 186.906 34.3906C187.391 32.8906 188.07 31.6016 188.945 30.5234C189.836 29.4453 190.891 28.6172 192.109 28.0391C193.328 27.4609 194.688 27.1719 196.188 27.1719C197.406 27.1719 198.508 27.3438 199.492 27.6875C200.477 28.0312 201.32 28.5781 202.023 29.3281C202.742 30.0781 203.289 31.0625 203.664 32.2812C204.055 33.4844 204.25 34.9688 204.25 36.7344V53H198.016V36.6875C198.016 35.5312 197.844 34.6172 197.5 33.9453C197.172 33.2734 196.688 32.7969 196.047 32.5156C195.422 32.2344 194.648 32.0938 193.727 32.0938C192.773 32.0938 191.938 32.2891 191.219 32.6797C190.516 33.0547 189.922 33.5781 189.438 34.25C188.969 34.9219 188.609 35.6953 188.359 36.5703C188.109 37.4453 187.984 38.3906 187.984 39.4062ZM217.141 50.1875L223.938 27.6406H230.57L220.398 56.8438C220.164 57.4688 219.859 58.1484 219.484 58.8828C219.125 59.6172 218.641 60.3125 218.031 60.9688C217.422 61.6406 216.656 62.1875 215.734 62.6094C214.828 63.0312 213.727 63.2422 212.43 63.2422C211.867 63.2422 211.367 63.2031 210.93 63.125C210.492 63.0469 210.031 62.9453 209.547 62.8203V58.1797C209.703 58.1953 209.883 58.2031 210.086 58.2031C210.305 58.2188 210.492 58.2266 210.648 58.2266C211.555 58.2266 212.305 58.1172 212.898 57.8984C213.492 57.6953 213.969 57.3594 214.328 56.8906C214.703 56.4375 215.016 55.8438 215.266 55.1094L217.141 50.1875ZM213.789 27.6406L219.531 46.3203L220.539 52.8594L216.273 53.6328L207.109 27.6406H213.789Z" fill="white"/>
<path d="M243.648 51.4609L250.445 23.875H254.125L254.359 29.6875L247.094 58H243.203L243.648 51.4609ZM239.359 23.875L244.938 51.3672V58H240.695L232.961 23.875H239.359ZM261.414 51.25L266.898 23.875H273.32L265.586 58H261.344L261.414 51.25ZM255.883 23.875L262.68 51.5547L263.078 58H259.188L251.945 29.6641L252.227 23.875H255.883ZM283.492 32.6406V58H277.281V32.6406H283.492ZM276.859 26.0078C276.859 25.0859 277.172 24.3203 277.797 23.7109C278.438 23.1016 279.297 22.7969 280.375 22.7969C281.453 22.7969 282.305 23.1016 282.93 23.7109C283.57 24.3203 283.891 25.0859 283.891 26.0078C283.891 26.9141 283.57 27.6719 282.93 28.2812C282.305 28.8906 281.453 29.1953 280.375 29.1953C279.297 29.1953 278.438 28.8906 277.797 28.2812C277.172 27.6719 276.859 26.9141 276.859 26.0078ZM303.344 51.0625C303.344 50.5312 303.203 50.0547 302.922 49.6328C302.641 49.2109 302.109 48.8281 301.328 48.4844C300.562 48.125 299.438 47.7891 297.953 47.4766C296.641 47.1953 295.43 46.8438 294.32 46.4219C293.211 46 292.258 45.4922 291.461 44.8984C290.664 44.2891 290.039 43.5781 289.586 42.7656C289.148 41.9375 288.93 40.9844 288.93 39.9062C288.93 38.8594 289.156 37.875 289.609 36.9531C290.062 36.0156 290.719 35.1953 291.578 34.4922C292.438 33.7734 293.484 33.2109 294.719 32.8047C295.953 32.3828 297.344 32.1719 298.891 32.1719C301.047 32.1719 302.898 32.5234 304.445 33.2266C306.008 33.9297 307.203 34.8984 308.031 36.1328C308.859 37.3516 309.273 38.7266 309.273 40.2578H303.086C303.086 39.5859 302.93 38.9766 302.617 38.4297C302.32 37.8828 301.859 37.4453 301.234 37.1172C300.609 36.7734 299.82 36.6016 298.867 36.6016C298.008 36.6016 297.281 36.7422 296.688 37.0234C296.109 37.3047 295.672 37.6719 295.375 38.125C295.078 38.5781 294.93 39.0781 294.93 39.625C294.93 40.0312 295.008 40.3984 295.164 40.7266C295.336 41.0391 295.609 41.3281 295.984 41.5938C296.359 41.8594 296.867 42.1016 297.508 42.3203C298.164 42.5391 298.969 42.75 299.922 42.9531C301.812 43.3281 303.461 43.8281 304.867 44.4531C306.289 45.0625 307.398 45.875 308.195 46.8906C308.992 47.9062 309.391 49.2031 309.391 50.7812C309.391 51.9062 309.148 52.9375 308.664 53.875C308.18 54.7969 307.477 55.6016 306.555 56.2891C305.633 56.9766 304.531 57.5156 303.25 57.9062C301.969 58.2812 300.523 58.4688 298.914 58.4688C296.586 58.4688 294.617 58.0547 293.008 57.2266C291.398 56.3828 290.18 55.3203 289.352 54.0391C288.523 52.7422 288.109 51.3984 288.109 50.0078H294.039C294.086 50.9922 294.352 51.7812 294.836 52.375C295.32 52.9688 295.93 53.3984 296.664 53.6641C297.414 53.9141 298.203 54.0391 299.031 54.0391C299.969 54.0391 300.758 53.9141 301.398 53.6641C302.039 53.3984 302.523 53.0469 302.852 52.6094C303.18 52.1562 303.344 51.6406 303.344 51.0625ZM325.492 58.4688C323.57 58.4688 321.844 58.1562 320.312 57.5312C318.781 56.9062 317.477 56.0391 316.398 54.9297C315.336 53.8047 314.516 52.5 313.938 51.0156C313.375 49.5156 313.094 47.9062 313.094 46.1875V45.25C313.094 43.2969 313.375 41.5234 313.938 39.9297C314.5 38.3203 315.297 36.9375 316.328 35.7812C317.359 34.625 318.594 33.7344 320.031 33.1094C321.469 32.4844 323.055 32.1719 324.789 32.1719C326.586 32.1719 328.172 32.4766 329.547 33.0859C330.922 33.6797 332.07 34.5234 332.992 35.6172C333.914 36.7109 334.609 38.0234 335.078 39.5547C335.547 41.0703 335.781 42.75 335.781 44.5938V47.1953H315.906V42.9297H329.688V42.4609C329.656 41.4766 329.469 40.5781 329.125 39.7656C328.781 38.9375 328.25 38.2812 327.531 37.7969C326.812 37.2969 325.883 37.0469 324.742 37.0469C323.82 37.0469 323.016 37.25 322.328 37.6562C321.656 38.0469 321.094 38.6094 320.641 39.3438C320.203 40.0625 319.875 40.9219 319.656 41.9219C319.438 42.9219 319.328 44.0312 319.328 45.25V46.1875C319.328 47.25 319.469 48.2344 319.75 49.1406C320.047 50.0469 320.477 50.8359 321.039 51.5078C321.617 52.1641 322.305 52.6797 323.102 53.0547C323.914 53.4141 324.836 53.5938 325.867 53.5938C327.164 53.5938 328.336 53.3438 329.383 52.8438C330.445 52.3281 331.367 51.5703 332.148 50.5703L335.266 53.8047C334.734 54.5859 334.016 55.3359 333.109 56.0547C332.219 56.7734 331.141 57.3594 329.875 57.8125C328.609 58.25 327.148 58.4688 325.492 58.4688Z" fill="#2563EB"/>
<path d="M63.5 32C63.5 49.397 49.397 63.5 32 63.5C14.603 63.5 0.5 49.397 0.5 32C0.5 14.603 14.603 0.5 32 0.5C49.397 0.5 63.5 14.603 63.5 32Z" fill="#FAFAFA" stroke="#323238"/>
<path d="M87.5 32C87.5 49.397 73.397 63.5 56 63.5C38.603 63.5 24.5 49.397 24.5 32C24.5 14.603 38.603 0.5 56 0.5C73.397 0.5 87.5 14.603 87.5 32Z" fill="#2563EB" stroke="#323238"/>
</svg>
